<svg width="1600" height="1000" viewBox="0 0 1600 1000" fill="none" xmlns="http://www.w3.org/2000/svg">
  <defs>
    <linearGradient id="sky" x1="0" y1="0" x2="0" y2="1">
      <stop offset="0%" stop-color="#e6f7ff" />
      <stop offset="100%" stop-color="#d9ecff" />
    </linearGradient>
    <linearGradient id="grass" x1="0" y1="0" x2="0" y2="1">
      <stop offset="0%" stop-color="#c9f0d0" />
      <stop offset="100%" stop-color="#9ee0a8" />
    </linearGradient>
    <linearGradient id="van" x1="0" y1="0" x2="1" y2="0">
      <stop offset="0%" stop-color="#4da6ff" />
      <stop offset="100%" stop-color="#2f8bff" />
    </linearGradient>
  </defs>

  <rect width="1600" height="1000" rx="42" fill="url(#sky)"/>
  <path d="M0 780c120-48 240-72 360-72 120 0 228 18 336 18 108 0 204-54 312-54 108 0 192 24 300 24s180-36 330-84" stroke="#b8d8f8" stroke-width="6" fill="none"/>
  <rect y="610" width="1600" height="190" fill="url(#grass)"/>

  <g transform="translate(300 520)">
    <rect x="0" y="170" width="980" height="150" rx="28" fill="url(#van)"/>
    <rect x="34" y="120" width="840" height="70" rx="18" fill="#2b80dc"/>
    <rect x="72" y="48" width="220" height="110" rx="16" fill="#f4fbff" stroke="#1f65b3" stroke-width="5"/>
    <path d="M72 100h220" stroke="#1f65b3" stroke-width="5"/>
    <rect x="332" y="48" width="220" height="110" rx="16" fill="#f4fbff" stroke="#1f65b3" stroke-width="5"/>
    <path d="M332 100h220" stroke="#1f65b3" stroke-width="5"/>
    <rect x="592" y="48" width="272" height="110" rx="16" fill="#f4fbff" stroke="#1f65b3" stroke-width="5"/>
    <path d="M592 100h272" stroke="#1f65b3" stroke-width="5"/>

    <circle cx="130" cy="340" r="26" fill="#1f2937"/>
    <circle cx="390" cy="340" r="26" fill="#1f2937"/>
    <circle cx="650" cy="340" r="26" fill="#1f2937"/>
    <circle cx="910" cy="340" r="26" fill="#1f2937"/>

    <circle cx="130" cy="340" r="18" fill="#e5e7eb"/>
    <circle cx="390" cy="340" r="18" fill="#e5e7eb"/>
    <circle cx="650" cy="340" r="18" fill="#e5e7eb"/>
    <circle cx="910" cy="340" r="18" fill="#e5e7eb"/>

    <rect x="42" y="208" width="140" height="64" rx="10" fill="#86efac"/>
    <rect x="62" y="226" width="100" height="28" rx="14" fill="#14532d"/>
  </g>

  <g>
    <rect x="520" y="290" width="620" height="180" rx="30" fill="#ffffff" fill-opacity="0.78"/>
    <text x="560" y="355" fill="#0f172a" font-family="Segoe UI, Arial, sans-serif" font-size="40" font-weight="700">Safe Transport</text>
    <text x="560" y="405" fill="#1e293b" font-family="Segoe UI, Arial, sans-serif" font-size="28">Child first • Citywide coverage</text>
  </g>

  <g transform="translate(1250 290)">
    <path d="M-22 40h44v60h-44z" fill="#fde047"/>
    <path d="M-30 100h60v20H-30z" fill="#334155"/>
    <circle cx="0" cy="40" r="28" fill="#fee2e2"/>
    <path d="M-7 28h14v22H-7z" fill="#0f172a"/>
    <path d="M-24 40c2 12 10 26 24 26s22-14 24-26" stroke="#f43f5e" stroke-width="4" fill="none"/>
  </g>

  <g transform="translate(260 300)">
    <circle cx="18" cy="18" r="28" fill="#ecfdf5"/>
    <path d="M8 18h20M18 8v20" stroke="#16a34a" stroke-width="5" stroke-linecap="round"/>
    <rect x="-20" y="58" width="76" height="58" rx="16" fill="#e2e8f0"/>
  </g>
</svg>
